<?xml version="1.0" encoding="UTF-8" standalone="no"?>
<svg
   xmlns:dc="http://purl.org/dc/elements/1.1/"
   xmlns:cc="http://creativecommons.org/ns#"
   xmlns:rdf="http://www.w3.org/1999/02/22-rdf-syntax-ns#"
   xmlns:svg="http://www.w3.org/2000/svg"
   xmlns="http://www.w3.org/2000/svg"
   xmlns:sodipodi="http://sodipodi.sourceforge.net/DTD/sodipodi-0.dtd"
   xmlns:inkscape="http://www.inkscape.org/namespaces/inkscape"
   version="1.0"
   width="199.000000pt"
   height="199.000000pt"
   viewBox="0 0 199.000000 199.000000"
   preserveAspectRatio="xMidYMid meet"
   id="svg8"
   sodipodi:docname="favicon.svg"
   inkscape:version="0.92.4 (5da689c313, 2019-01-14)">
  <defs
     id="defs12" />
  <sodipodi:namedview
     pagecolor="#ffffff"
     bordercolor="#666666"
     borderopacity="1"
     objecttolerance="10"
     gridtolerance="10"
     guidetolerance="10"
     inkscape:pageopacity="0"
     inkscape:pageshadow="2"
     inkscape:window-width="1920"
     inkscape:window-height="1017"
     id="namedview10"
     showgrid="false"
     inkscape:zoom="1.0871225"
     inkscape:cx="101.77585"
     inkscape:cy="111.99853"
     inkscape:window-x="-8"
     inkscape:window-y="-8"
     inkscape:window-maximized="1"
     inkscape:current-layer="svg8" />
  <metadata
     id="metadata2">
Created by potrace 1.14, written by Peter Selinger 2001-2017
<rdf:RDF>
  <cc:Work
     rdf:about="">
    <dc:format>image/svg+xml</dc:format>
    <dc:type
       rdf:resource="http://purl.org/dc/dcmitype/StillImage" />
    <dc:title></dc:title>
  </cc:Work>
</rdf:RDF>
</metadata>
  <g
     transform="matrix(0.1,0,0,-0.1,0,199)"
     id="g6"
     style="fill:#000000;stroke:none" />
  <path
     style="opacity:1;fill:#000000;fill-opacity:1;fill-rule:evenodd;stroke:#f463f3;stroke-width:0;stroke-linecap:round;stroke-linejoin:round;stroke-miterlimit:4;stroke-dasharray:none;stroke-dashoffset:0;stroke-opacity:1;paint-order:fill markers stroke"
     d="M 99.430283,2.6664225 A 96.851499,96.851499 0 0 0 2.5774446,99.519265 96.851499,96.851499 0 0 0 99.430283,196.36906 96.851499,96.851499 0 0 0 196.28009,99.519265 96.851499,96.851499 0 0 0 99.430283,2.6664225 Z m 0,4.5196173 A 92.331761,92.331761 0 0 1 191.76046,99.519265 92.331761,92.331761 0 0 1 99.430283,191.84943 92.331761,92.331761 0 0 1 7.0970598,99.519265 92.331761,92.331761 0 0 1 99.430283,7.1860398 Z m 0.31127,22.3142682 c -2.737748,-0.01104 -5.498938,0.150728 -8.273236,0.491329 -1.638401,0.201165 -3.283777,0.485598 -4.928549,0.814814 -1.139456,0.228111 -2.280409,0.465636 -3.420991,0.75683 -0.40153,0.102478 -0.797344,0.22015 -1.19628,0.329587 -24.541539,6.725174 -44.210956,26.286989 -50.478713,50.350538 -1.592018,6.112161 -2.13078,13.91706 -1.730331,21.075264 0,0 0,0.002 0,0.002 2.29e-4,0.004 -2.32e-4,0.008 0,0.0125 0.0694,1.23587 0.168936,2.43569 0.296018,3.61937 0.02321,0.22187 0.05112,0.43652 0.07629,0.65612 0.276404,2.34942 0.639224,4.58852 1.144401,6.56122 0.0516,0.20437 0.107624,0.39899 0.161749,0.59814 0.08496,0.30904 0.168603,0.62276 0.259398,0.91857 0.136207,0.44712 0.280108,0.87366 0.430294,1.28783 0.02648,0.0731 0.04937,0.15395 0.07629,0.22583 0,0 0,0.002 0,0.002 4.852323,12.96508 19.039653,22.2443 32.867163,21.92366 0.92189,-0.0215 1.842939,-0.0838 2.758765,-0.19229 1.113153,-0.13188 2.279729,-0.34584 3.482028,-0.62867 1.201413,-0.2826 2.439944,-0.63689 3.695649,-1.05284 0.343162,-0.11375 0.695075,-0.26473 1.040641,-0.38758 2.185312,-0.77685 4.405023,-1.69911 6.582586,-2.78927 5.043919,-2.52492 9.827384,-5.77166 13.235365,-9.17961 0.740884,-0.74089 1.494732,-1.58399 2.246083,-2.49938 1.50267,-1.83078 2.991957,-3.94588 4.321257,-6.07905 1.32931,-2.13317 2.50009,-4.28389 3.3691,-6.19197 0.65177,-1.43105 1.13387,-2.72404 1.38549,-3.76889 0.16771,-0.69656 0.23192,-1.28478 0.17708,-1.72728 -0.0273,-0.22014 -0.0848,-0.40429 -0.17395,-0.54931 0,0 0,-0.004 0,-0.004 -0.21663,-0.35052 -0.97281,-0.75718 -2.0172,-1.1322 -1.04407,-0.37521 -2.377,-0.71839 -3.74447,-0.93689 -1.36747,-0.21864 -2.608207,-0.55483 -3.509496,-0.92162 -0.451726,-0.18395 -0.818702,-0.37383 -1.071158,-0.56151 -0.06104,-0.0452 -0.09292,-0.0896 -0.140416,-0.13438 -0.05062,-0.0477 -0.115207,-0.0967 -0.149582,-0.14333 -0.06646,-0.0904 -0.100707,-0.17791 -0.100707,-0.262446 0,-0.12436 0.105353,-0.359956 0.302126,-0.692745 1.377366,-2.329529 7.265573,-9.409726 13.320813,-16.302357 0,0 0,-0.0031 0,-0.0031 3.45964,-3.938049 6.97341,-7.814101 9.73199,-10.705479 1.47007,-1.540858 2.70102,-2.771065 3.61934,-3.613252 0.64633,-0.592526 1.13822,-0.995467 1.40685,-1.123037 0.0652,-0.03098 0.13416,-0.06104 0.17395,-0.06104 0.17833,0 0.33127,0.01354 0.48219,0.04271 0.056,0.01146 0.11395,0.01896 0.16791,0.03967 0.0167,0.0065 0.0344,0.01667 0.0519,0.02442 0.0863,0.03896 0.16874,0.09104 0.25329,0.16479 0.0104,0.0092 0.0227,0.0175 0.0335,0.02748 0.0888,0.08273 0.17687,0.191728 0.26856,0.326535 1.00724,1.483419 2.32754,6.576871 6.86334,24.19719 2.35373,9.143551 3.99884,16.905881 3.65597,17.248401 -0.34292,0.34297 -3.06267,-0.0285 -6.04243,-0.82396 -6.18708,-1.65146 -7.04851,-0.9762 -8.42889,6.59785 -0.45069,2.47291 -2.76317,8.56497 -5.13913,13.53749 -6.19751,12.97052 -16.55953,22.95285 -30.917104,29.78796 -6.139272,2.92261 -11.180471,5.72287 -11.20291,6.2225 -0.02292,0.49924 2.65282,1.7364 5.947826,2.7496 7.547274,2.31904 24.845808,2.51373 34.383868,0.60118 0.099,-0.0187 0.19875,-0.0381 0.29602,-0.0579 0.82433,-0.17187 1.60874,-0.35385 2.29796,-0.55845 0.91795,-0.27252 1.82586,-0.56312 2.72521,-0.8667 4.49673,-1.51784 8.75851,-3.41931 12.75013,-5.66402 1.59665,-0.89791 3.15162,-1.85144 4.66,-2.85641 6.78836,-4.52271 12.65927,-10.10108 17.42234,-16.49768 0.22041,-0.296 0.42828,-0.60081 0.64391,-0.90026 0.61389,-0.85252 1.21065,-1.71713 1.78527,-2.59702 0.19229,-0.29454 0.39196,-0.58444 0.57983,-0.88195 0,0 0,-0.002 0,-0.002 0.47287,-0.74893 0.93212,-1.50615 1.37632,-2.27354 0,0 0,-0.002 0,-0.002 0.44419,-0.76741 0.87591,-1.54326 1.29089,-2.32849 0,0 0,-0.002 0,-0.002 0.41537,-0.78601 0.81376,-1.58019 1.19932,-2.3834 0.386,-0.80401 0.75831,-1.61471 1.11389,-2.43529 0.35525,-0.81972 0.69489,-1.64546 1.01928,-2.48104 0.64914,-1.67205 1.23543,-3.37395 1.7578,-5.10556 0.26108,-0.86533 0.50379,-1.73611 0.73243,-2.61534 0.4575,-1.75936 0.85056,-3.5448 1.17491,-5.35579 0.0221,-0.12354 0.0396,-0.24864 0.061,-0.3723 0.45106,-2.59632 0.76668,-5.24032 0.93383,-7.92842 0.0848,-1.36443 0.1202,-2.71723 0.1252,-4.064896 0.002,-0.472687 -0.0187,-0.939448 -0.0275,-1.409902 -0.0146,-0.883995 -0.034,-1.767113 -0.0823,-2.6428 -0.0289,-0.524545 -0.075,-1.044141 -0.11583,-1.565541 -0.064,-0.814283 -0.13666,-1.625999 -0.22887,-2.43223 -0.0598,-0.522 -0.12688,-1.040975 -0.19833,-1.559435 -0.11146,-0.807404 -0.23606,-1.609387 -0.37538,-2.407818 -0.0908,-0.52065 -0.18437,-1.039717 -0.28685,-1.556383 -0.15104,-0.761215 -0.32141,-1.515228 -0.49743,-2.267438 -0.12208,-0.521808 -0.23839,-1.045185 -0.37231,-1.562487 -0.20021,-0.773844 -0.42377,-1.537644 -0.65002,-2.301007 -0.14437,-0.487312 -0.27851,-0.978898 -0.43335,-1.461779 -0.38589,-1.203526 -0.79626,-2.395864 -1.24511,-3.570529 -0.45791,-1.198459 -0.95293,-2.379706 -1.47399,-3.546113 -0.17791,-0.398093 -0.37341,-0.786583 -0.55847,-1.180901 -0.34935,-0.744365 -0.70287,-1.48549 -1.07727,-2.215559 -0.24422,-0.476271 -0.50216,-0.942955 -0.75684,-1.412951 -0.35567,-0.656413 -0.71689,-1.309289 -1.09249,-1.953109 -0.2749,-0.471117 -0.55698,-0.936563 -0.84231,-1.400745 -0.37781,-0.614728 -0.76389,-1.222698 -1.15964,-1.824937 -0.29933,-0.455453 -0.60008,-0.909901 -0.90943,-1.358022 -0.43218,-0.62607 -0.87924,-1.241021 -1.33055,-1.8524 -0.29979,-0.406105 -0.59526,-0.815131 -0.9033,-1.21459 -0.5151,-0.668011 -1.04931,-1.319418 -1.58691,-1.968369 -0.25977,-0.313529 -0.51026,-0.634007 -0.77514,-0.942986 -0.82291,-0.959984 -1.66519,-1.89902 -2.536,-2.813696 -0.8752,-0.919309 -1.77659,-1.81406 -2.69772,-2.685526 -0.26061,-0.246529 -0.53235,-0.480667 -0.7965,-0.723259 -0.65039,-0.597357 -1.30622,-1.187852 -1.97752,-1.76085 -0.38163,-0.325714 -0.7715,-0.64058 -1.15966,-0.958246 -0.5896,-0.482542 -1.18405,-0.958507 -1.78832,-1.422107 -0.40341,-0.309483 -0.81095,-0.611595 -1.2207,-0.912466 -0.61328,-0.449692 -1.23195,-0.890703 -1.85865,-1.321183 -0.41995,-0.288427 -0.84056,-0.575049 -1.26647,-0.854484 -0.6356,-0.417055 -1.28026,-0.817933 -1.92871,-1.214591 -0.43027,-0.263191 -0.85818,-0.530249 -1.29393,-0.784295 -0.71347,-0.415976 -1.43917,-0.811394 -2.16673,-1.202384 -0.37396,-0.200957 -0.74243,-0.410009 -1.11999,-0.604241 -1.11464,-0.573518 -2.24009,-1.122112 -3.38437,-1.635728 -1.14549,-0.514165 -2.30921,-0.991361 -3.48201,-1.44347 -0.36833,-0.141978 -0.74304,-0.267102 -1.11389,-0.40283 -0.81724,-0.299118 -1.63682,-0.592314 -2.46581,-0.860589 -0.434,-0.140436 -0.87212,-0.267927 -1.30918,-0.399778 -0.7756,-0.233994 -1.55295,-0.458767 -2.33763,-0.665278 -0.47445,-0.124853 -0.95064,-0.2424 -1.42821,-0.357051 -0.75621,-0.18154 -1.51603,-0.347974 -2.27965,-0.503535 -0.50158,-0.102187 -1.00297,-0.202144 -1.50755,-0.292967 -0.76929,-0.138478 -1.54351,-0.257629 -2.31932,-0.369259 -0.48195,-0.06933 -0.96224,-0.142582 -1.44653,-0.201415 -0.89643,-0.108937 -1.797,-0.190061 -2.70079,-0.262448 -0.36566,-0.02929 -0.72878,-0.07137 -1.09555,-0.0946 -1.28993,-0.08167 -2.58592,-0.135062 -3.887937,-0.140374 z"
     id="circle2282"
     inkscape:connector-curvature="0" />
</svg>
