<?xml version="1.0" encoding="UTF-8" standalone="no"?>
<!-- Created with Inkscape (http://www.inkscape.org/) -->

<svg
   xmlns:dc="http://purl.org/dc/elements/1.1/"
   xmlns:cc="http://creativecommons.org/ns#"
   xmlns:rdf="http://www.w3.org/1999/02/22-rdf-syntax-ns#"
   xmlns:svg="http://www.w3.org/2000/svg"
   xmlns="http://www.w3.org/2000/svg"
   xmlns:xlink="http://www.w3.org/1999/xlink"
   xmlns:sodipodi="http://sodipodi.sourceforge.net/DTD/sodipodi-0.dtd"
   xmlns:inkscape="http://www.inkscape.org/namespaces/inkscape"
   width="200mm"
   height="90mm"
   viewBox="0 0 260 117"
   version="1.1"
   id="svg8"
   inkscape:version="0.92.4 (5da689c313, 2019-01-14)"
   sodipodi:docname="logo.svg">
  <defs
     id="defs2">
    <linearGradient
       id="linearGradient1554"
       inkscape:collect="always">
      <stop
         id="stop1550"
         offset="0"
         style="stop-color:#ccab24;stop-opacity:1" />
      <stop
         id="stop1552"
         offset="1"
         style="stop-color:#ffd735;stop-opacity:1" />
    </linearGradient>
    <linearGradient
       id="linearGradient1520"
       inkscape:collect="always">
      <stop
         id="stop1516"
         offset="0"
         style="stop-color:#340b41;stop-opacity:1" />
      <stop
         id="stop1518"
         offset="1"
         style="stop-color:#5d134a;stop-opacity:1" />
    </linearGradient>
    <linearGradient
       inkscape:collect="always"
       id="linearGradient1501">
      <stop
         style="stop-color:#400c33;stop-opacity:1;"
         offset="0"
         id="stop1497" />
      <stop
         style="stop-color:#400c33;stop-opacity:0;"
         offset="1"
         id="stop1499" />
    </linearGradient>
    <linearGradient
       inkscape:collect="always"
       id="linearGradient1486">
      <stop
         style="stop-color:#9a2d98;stop-opacity:1"
         offset="0"
         id="stop1482" />
      <stop
         style="stop-color:#5c1449;stop-opacity:1"
         offset="1"
         id="stop1484" />
    </linearGradient>
    <linearGradient
       inkscape:collect="always"
       id="linearGradient1002">
      <stop
         style="stop-color:#9c279b;stop-opacity:1;"
         offset="0"
         id="stop998" />
      <stop
         style="stop-color:#44173d;stop-opacity:1"
         offset="1"
         id="stop1000" />
    </linearGradient>
    <linearGradient
       inkscape:collect="always"
       id="linearGradient968">
      <stop
         style="stop-color:#ffd21d;stop-opacity:1"
         offset="0"
         id="stop964" />
      <stop
         style="stop-color:#cba612;stop-opacity:1"
         offset="1"
         id="stop966" />
    </linearGradient>
    <linearGradient
       inkscape:collect="always"
       xlink:href="#linearGradient1486"
       id="linearGradient1488"
       x1="284.47498"
       y1="41.387127"
       x2="221.85849"
       y2="88.881752"
       gradientUnits="userSpaceOnUse"
       gradientTransform="translate(-154.40984,85.694008)" />
    <linearGradient
       inkscape:collect="always"
       xlink:href="#linearGradient1002"
       id="linearGradient1490"
       x1="1065.7201"
       y1="-176.4622"
       x2="848.99976"
       y2="178.92117"
       gradientUnits="userSpaceOnUse"
       gradientTransform="matrix(0.26458333,0,0,0.26458333,-136.06888,112.56607)" />
    <linearGradient
       inkscape:collect="always"
       xlink:href="#linearGradient1501"
       id="linearGradient1503"
       x1="744.4787"
       y1="125.90607"
       x2="1167.3054"
       y2="36.646996"
       gradientUnits="userSpaceOnUse"
       gradientTransform="translate(-514.27608,425.44656)" />
    <linearGradient
       inkscape:collect="always"
       xlink:href="#linearGradient1486"
       id="linearGradient1508"
       gradientUnits="userSpaceOnUse"
       gradientTransform="matrix(1.2128357,-0.22633484,0.22633484,1.2128357,-165.09586,126.5611)"
       x1="284.47498"
       y1="41.387127"
       x2="221.85849"
       y2="88.881752" />
    <linearGradient
       inkscape:collect="always"
       xlink:href="#linearGradient1520"
       id="linearGradient1514"
       gradientUnits="userSpaceOnUse"
       gradientTransform="matrix(0.32643601,0,0,0.32643601,-165.09585,126.5611)"
       x1="744.4787"
       y1="125.90607"
       x2="1198.8633"
       y2="-15.949422" />
    <radialGradient
       inkscape:collect="always"
       xlink:href="#linearGradient968"
       id="radialGradient1537"
       gradientUnits="userSpaceOnUse"
       gradientTransform="matrix(1.3904521,2.660044e-7,-6.8245734e-8,0.35673254,-1023.9631,96.595833)"
       cx="887.78687"
       cy="-16.899773"
       fx="887.78687"
       fy="-16.899773"
       r="343.39944" />
    <linearGradient
       inkscape:collect="always"
       xlink:href="#linearGradient1554"
       id="linearGradient1548"
       x1="94.360298"
       y1="124.85932"
       x2="93.791756"
       y2="95.375237"
       gradientUnits="userSpaceOnUse"
       gradientTransform="matrix(1.2837904,0,0,1.2837904,1.1809263,-17.133528)" />
  </defs>
  <sodipodi:namedview
     id="base"
     pagecolor="#ffffff"
     bordercolor="#666666"
     borderopacity="1.0"
     inkscape:pageopacity="0.0"
     inkscape:pageshadow="2"
     inkscape:zoom="0.85557158"
     inkscape:cx="515.96758"
     inkscape:cy="140.2018"
     inkscape:document-units="mm"
     inkscape:current-layer="layer1"
     showgrid="false"
     objecttolerance="1"
     fit-margin-top="0"
     fit-margin-left="0"
     fit-margin-right="0"
     fit-margin-bottom="0"
     scale-x="1.3"
     inkscape:window-width="1920"
     inkscape:window-height="1017"
     inkscape:window-x="-8"
     inkscape:window-y="-8"
     inkscape:window-maximized="1" />
  <metadata
     id="metadata5">
    <rdf:RDF>
      <cc:Work
         rdf:about="">
        <dc:format>image/svg+xml</dc:format>
        <dc:type
           rdf:resource="http://purl.org/dc/dcmitype/StillImage" />
        <dc:title></dc:title>
      </cc:Work>
    </rdf:RDF>
  </metadata>
  <g
     inkscape:label="Layer 1"
     inkscape:groupmode="layer"
     id="layer1"
     transform="translate(-0.26820724,-61.80196)">
    <path
       style="opacity:1;fill:url(#linearGradient1508);fill-opacity:1;fill-rule:evenodd;stroke:#340d3f;stroke-width:0;stroke-linecap:round;stroke-linejoin:round;stroke-miterlimit:4;stroke-dasharray:none;stroke-dashoffset:0;stroke-opacity:1;paint-order:fill markers stroke"
       d="M 190.47226,67.65046 A 44.01596,129.74823 78.169845 0 0 129.29993,73.630869 44.01596,129.74823 78.169845 0 0 3.1183764,142.15502 44.01596,129.74823 78.169845 0 0 11.544506,156.06108 C 9.3417421,142.9254 15.674606,129.66905 35.495474,116.97991 51.373639,106.81487 71.504273,98.805474 92.554196,95.051319 66.184883,103.84223 0.05078207,135.92783 27.241488,163.49705 a 44.01596,129.74823 78.169845 0 0 30.454185,4.97368 37.166219,109.55689 78.169845 0 1 -22.738946,-18.72416 37.166219,109.55689 78.169845 0 1 106.545023,-57.860149 37.166219,109.55689 78.169845 0 1 108.44689,17.540839 37.166219,109.55689 78.169845 0 1 -0.27734,2.42595 44.01596,129.74823 78.169845 0 0 8.06208,-17.449024 44.01596,129.74823 78.169845 0 0 -67.26112,-26.753726 z m -14.0425,40.96709 a 30.714088,74.972894 79.429269 0 0 -29.14525,2.97234 30.714088,74.972894 79.429269 0 0 -68.066374,43.9471 30.714088,74.972894 79.429269 0 0 79.335434,16.43911 30.714088,74.972894 79.429269 0 0 68.06573,-43.94645 30.714088,74.972894 79.429269 0 0 -50.18954,-19.4121 z"
       id="path1480"
       inkscape:connector-curvature="0" />
    <path
       style="opacity:1;fill:url(#linearGradient1514);fill-opacity:1;fill-rule:evenodd;stroke:#340d3f;stroke-width:0;stroke-linecap:round;stroke-linejoin:round;stroke-miterlimit:4;stroke-dasharray:none;stroke-dashoffset:0;stroke-opacity:1;paint-order:fill markers stroke"
       d="m 16.250413,84.321648 a 1.4189819,1.4189819 0 0 0 -1.419232,1.419233 v 49.642499 11.33028 a 1.4189819,1.4189819 0 0 0 1.419232,1.41986 h 11.332813 18.075118 a 1.4189819,1.4189819 0 0 0 1.419233,-1.41986 V 135.4599 c -0.04552,-0.21757 -0.08557,-0.43649 -0.124322,-0.65606 a 1.4189819,1.4189819 0 0 0 -1.294907,-0.83969 H 28.999908 V 85.740881 a 1.4189819,1.4189819 0 0 0 -1.416682,-1.419233 z m 30.702838,50.482192 a 1.4189819,1.4189819 0 0 1 0.124322,0.57954 v 0.0765 c 1.092723,5.22233 4.117283,9.84046 8.494348,12.51933 a 1.4189819,1.4189819 0 0 0 0.04846,0.0262 c 5.285895,2.95573 11.770644,3.14523 16.89944,-0.0312 h 0.0019 c 5.153103,-3.15743 8.489371,-8.98813 8.940012,-15.34249 a 1.4189819,1.4189819 0 0 0 -1.416679,-1.51805 H 68.663812 a 1.4189819,1.4189819 0 0 0 -1.402017,1.1999 c -0.404618,2.60605 -2.140219,3.85211 -3.21718,3.85794 -1.144949,-0.005 -3.031546,-1.4263 -3.274561,-4.36609 v -1.9567 h 7.968992 4.057498 7.298904 a 1.4189819,1.4189819 0 0 0 1.419869,-1.41731 v -9.47239 -1.14252 a 1.4189819,1.4189819 0 0 0 -0.123051,-0.57573 c -0.524465,-6.25296 -3.793525,-11.97784 -8.877528,-15.08938 a 1.4189819,1.4189819 0 0 0 -0.04846,-0.0268 c -2.535084,-1.41769 -5.3395,-2.156104 -8.142374,-2.236058 A 1.4189819,1.4189819 0 0 0 63.9675,99.840072 c -2.919271,-0.02093 -5.832758,0.725488 -8.395526,2.311198 -5.083369,3.11114 -8.349891,8.83484 -8.874979,15.08683 a 1.4189819,1.4189819 0 0 0 -0.124964,0.57828 v 1.14252 12.21266 1.1419 a 1.4189819,1.4189819 0 0 0 0.124964,0.57827 c 0.05413,0.64438 0.144948,1.28117 0.256305,1.91208 z M 153.30509,84.321648 a 1.4189819,1.4189819 0 0 0 -1.41923,1.419233 v 60.972779 a 1.4189819,1.4189819 0 0 0 1.41923,1.41986 h 11.3309 a 1.4189819,1.4189819 0 0 0 1.41923,-1.41986 V 85.740881 a 1.4189819,1.4189819 0 0 0 -1.41923,-1.419233 z m 17.80543,0 a 1.4189819,1.4189819 0 0 0 -1.41923,1.419233 v 46.977459 c 0,9.99054 7.30353,19.20043 17.46559,19.20043 10.16206,0 17.47772,-9.20837 17.47772,-19.20043 V 85.740881 a 1.4189819,1.4189819 0 0 0 -1.41923,-1.419233 h -11.3309 a 1.4189819,1.4189819 0 0 0 -1.41923,1.419233 v 46.977459 c 0,3.3616 -2.08437,5.00238 -3.30836,5.00238 -1.22404,0 -3.29623,-1.63726 -3.29623,-5.00238 V 85.740881 a 1.4189819,1.4189819 0 0 0 -1.41987,-1.419233 z M 17.669645,87.160111 h 8.494349 v 48.223269 a 1.4189819,1.4189819 0 0 0 1.419232,1.41669 h 16.655889 v 8.49434 H 27.583226 17.669645 v -9.91103 z m 137.054675,0 h 8.4918 v 58.134299 h -8.4918 z m 17.80543,0 h 8.49435 v 45.558229 c 0,4.54056 2.84052,7.84148 6.13278,7.84148 3.29226,0 6.14746,-3.2974 6.14746,-7.84148 V 87.160111 h 8.4918 v 45.558229 c 0,8.61771 -6.20145,16.36197 -14.63926,16.36197 -8.43781,0 -14.62713,-7.74278 -14.62713,-16.36197 z M 132.454,99.84011 c -2.9221,-0.02092 -5.83544,0.7268 -8.4,2.31566 -5.08009,3.11194 -8.34561,8.83277 -8.87052,15.08237 a 1.4189819,1.4189819 0 0 0 -0.12496,0.57827 v 1.14253 12.21266 1.14188 a 1.4189819,1.4189819 0 0 0 0.12496,0.57829 c 0.52511,6.25195 3.79161,11.97631 8.87498,15.08746 a 1.4189819,1.4189819 0 0 0 0.0484,0.0262 c 5.2859,2.95573 11.77002,3.14523 16.89881,-0.0312 h 0.003 c 5.1531,-3.15743 8.48937,-8.98813 8.94002,-15.34249 a 1.4189819,1.4189819 0 0 0 -1.41669,-1.51805 h -11.38126 a 1.4189819,1.4189819 0 0 0 -1.40202,1.1999 c -0.40462,2.60605 -2.14022,3.85211 -3.21719,3.85794 -1.14492,-0.005 -3.03155,-1.42631 -3.27456,-4.36609 v -1.9567 h 7.96836 4.05813 7.29891 a 1.4189819,1.4189819 0 0 0 1.41987,-1.41731 v -9.47239 -1.14252 a 1.4189819,1.4189819 0 0 0 -0.12299,-0.57573 c -0.52452,-6.25292 -3.79351,-11.97784 -8.87753,-15.08938 a 1.4189819,1.4189819 0 0 0 -0.0484,-0.0268 c -2.53727,-1.4188 -5.34418,-2.157137 -8.14942,-2.235968 a 1.4189819,1.4189819 0 0 0 -0.3494,-0.04846 z m 95.59792,0.80717 c -1.99656,-0.0493 -3.85872,0.76862 -5.62655,1.90378 a 1.4189819,1.4189819 0 0 0 -1.40266,-1.23115 H 209.6899 a 1.4189819,1.4189819 0 0 0 -1.41668,1.41924 v 44.62227 a 30.714086,74.972894 79.429269 0 1 -34.61114,10.3159 30.714086,74.972894 79.429269 0 1 -75.699376,-9.5438 h 8.266106 a 1.4189819,1.4189819 0 0 0 1.39309,-1.14699 l 8.72324,-44.51516 a 1.4189819,1.4189819 0 0 0 -1.3931,-1.69148 h -11.54448 a 1.4189819,1.4189819 0 0 0 -1.39309,1.14699 l -3.082021,15.72121 -3.082014,-15.72121 a 1.4189819,1.4189819 0 0 0 -1.390542,-1.14699 H 82.912855 a 1.4189819,1.4189819 0 0 0 -1.393091,1.69148 l 6.715529,34.27005 a 30.714086,74.972894 79.429269 0 0 -9.016518,18.79557 30.714086,74.972894 79.429269 0 0 79.334795,16.43911 30.714086,74.972894 79.429269 0 0 49.71965,-18.18478 v 9.92059 a 1.4189819,1.4189819 0 0 0 1.41668,1.41732 h 11.33281 a 1.4189819,1.4189819 0 0 0 1.41732,-1.41732 V 148.868 c 1.17825,0.75023 2.40113,1.3444 3.70364,1.5952 2.21819,0.42714 4.56579,-0.004 6.72764,-1.34654 h 0.003 c 5.54577,-3.39806 8.99101,-9.88777 8.99101,-16.80318 v -0.77592 -11.8027 -0.77592 c 0,-6.91542 -3.44532,-13.40517 -8.99101,-16.80317 l -0.003,-0.003 c -1.54978,-0.96209 -3.1916,-1.46576 -4.81939,-1.50594 z m -164.103593,2.02939 c 2.415616,0.0173 4.876359,0.67168 7.103809,1.91079 4.32655,2.65753 7.261363,7.75495 7.592823,13.3112 a 1.4189819,1.4189819 0 0 0 1.260477,1.32551 l -1.226684,-0.0849 v 7.87272 h -5.882223 -4.058136 -9.388225 a 1.4189819,1.4189819 0 0 0 -1.419229,1.41924 v 3.46264 a 1.4189819,1.4189819 0 0 0 0.0051,0.11349 c 0.324256,4.09002 3.023777,6.99525 6.106013,7.00244 a 1.4189819,1.4189819 0 0 0 0.0051,0 c 2.548843,-0.006 4.752954,-2.06469 5.650787,-5.0604 h 8.648005 c -0.777919,4.86975 -3.433055,9.2342 -7.31102,11.60761 a 1.4189819,1.4189819 0 0 0 -0.0071,0.005 c -4.163134,2.57925 -9.525955,2.46466 -13.990846,-0.0191 -4.32656,-2.65753 -7.261386,-7.75502 -7.592823,-13.31119 a 1.4189819,1.4189819 0 0 0 -1.259201,-1.32551 l 1.225409,0.0842 v -11.85307 l -1.284703,0.0911 a 1.4189819,1.4189819 0 0 0 1.318495,-1.32998 c 0.331917,-5.56423 3.272518,-10.67349 7.609403,-13.32777 a 1.4189819,1.4189819 0 0 0 0.0076,-0.003 c 2.086223,-1.2925 4.460644,-1.90905 6.887036,-1.89167 z m 68.486543,0 c 2.41562,0.0173 4.87635,0.67168 7.1038,1.91079 4.32657,2.65753 7.26136,7.75501 7.59282,13.3112 a 1.4189819,1.4189819 0 0 0 1.26048,1.32551 l -1.22669,-0.0849 v 7.87272 h -5.88222 -4.05813 -9.38823 a 1.4189819,1.4189819 0 0 0 -1.41923,1.41924 v 3.46264 a 1.4189819,1.4189819 0 0 0 0.005,0.11349 c 0.32425,4.09002 3.02378,6.99525 6.106,7.00244 a 1.4189819,1.4189819 0 0 0 0.005,0 c 2.54884,-0.006 4.75296,-2.06469 5.65079,-5.0604 h 8.64864 c -0.77792,4.86975 -3.43305,9.2342 -7.31101,11.60761 a 1.4189819,1.4189819 0 0 0 -0.008,0.005 c -4.16314,2.57925 -9.52596,2.46466 -13.99085,-0.0191 -4.32656,-2.65753 -7.26136,-7.75502 -7.59282,-13.31119 a 1.4189819,1.4189819 0 0 0 -1.2592,-1.32551 l 1.2254,0.0842 v -11.85307 l -1.2847,0.0911 a 1.4189819,1.4189819 0 0 0 1.3185,-1.32998 c 0.33194,-5.56423 3.27315,-10.67349 7.61004,-13.32777 a 1.4189819,1.4189819 0 0 0 0.007,-0.003 c 2.08622,-1.2925 4.46063,-1.90905 6.88704,-1.89167 z m 95.54756,0.80971 c 1.10159,0.0272 2.22073,0.34992 3.39506,1.07941 a 1.4189819,1.4189819 0 0 0 0.008,0.004 c 4.61159,2.82241 7.64318,8.4218 7.64318,14.38869 v 0.77593 11.8027 0.77592 c 0,5.96689 -3.03167,11.56634 -7.64318,14.38868 a 1.4189819,1.4189819 0 0 0 -0.008,0.004 c -1.63666,1.01667 -3.1559,1.26572 -4.69635,0.9691 -1.54043,-0.29663 -3.13565,-1.19434 -4.67466,-2.67972 a 1.4189819,1.4189819 0 0 0 -2.403,1.0214 v 16.2756 h -8.49371 v -10.3892 a 30.714086,74.972894 79.429269 0 0 12.33889,-11.84479 c 0.30711,0.0624 0.62084,0.0963 0.93851,0.0963 3.29225,0 6.14682,-3.29741 6.14682,-7.84147 v -0.50624 -12.34209 -0.50623 c 0,-4.54409 -2.85457,-7.84148 -6.14682,-7.84148 -1.75359,0 -3.38031,0.99118 -4.50889,2.53052 a 1.4189819,1.4189819 0 0 0 -0.2748,0.83841 v 22.29965 a 1.4189819,1.4189819 0 0 0 0.2748,0.83841 c 0.7772,1.06009 1.79043,1.85974 2.91878,2.25509 a 30.714086,74.972894 79.429269 0 1 -11.68729,6.20609 v -41.92667 h 8.49371 v 1.09407 a 1.4189819,1.4189819 0 0 0 2.403,1.02139 c 1.97411,-1.9049 4.00691,-2.83608 5.97595,-2.78746 z m -143.344308,0.13197 h 8.653104 l 4.248131,21.68059 a 1.4189819,1.4189819 0 0 0 2.785543,0 l 4.24877,-21.68059 h 8.65311 l -8.16664,41.67606 h -9.151051 a 30.714086,74.972894 79.429269 0 1 -1.582447,-4.05621 30.714086,74.972894 79.429269 0 1 2.57132,-11.10074 30.714086,74.972894 79.429269 0 0 -6.178057,4.51655 z M 64.0395,111.12001 c -3.082065,0.008 -5.77925,2.91284 -6.103462,7.00244 a 1.4189819,1.4189819 0 0 0 -0.0051,0.11349 v 2.65802 a 1.4189819,1.4189819 0 0 0 1.419229,1.41923 h 9.388225 a 1.4189819,1.4189819 0 0 0 1.417317,-1.41923 v -2.65802 a 1.4189819,1.4189819 0 0 0 -0.0051,-0.11349 c -0.324229,-4.09003 -3.021234,-6.99525 -6.103462,-7.00244 a 1.4189819,1.4189819 0 0 0 -0.0076,0 z m 68.48653,0 c -3.08206,0.008 -5.77925,2.91284 -6.10346,7.00244 a 1.4189819,1.4189819 0 0 0 -0.005,0.11349 v 2.65802 a 1.4189819,1.4189819 0 0 0 1.41923,1.41923 h 9.38822 a 1.4189819,1.4189819 0 0 0 1.41732,-1.41923 v -2.65802 a 1.4189819,1.4189819 0 0 0 -0.005,-0.11349 c -0.32425,-4.09003 -3.02189,-6.99525 -6.10411,-7.00244 a 1.4189819,1.4189819 0 0 0 -0.006,0 z m 91.86114,2.83655 c 1.22399,0 3.3109,1.64075 3.3109,5.00238 v 0.50623 12.34209 0.50622 c 0,3.36162 -2.08691,5.00238 -3.3109,5.00238 -0.56722,0 -1.30091,-0.39141 -1.94714,-1.11511 V 115.0723 c 0.64623,-0.72368 1.37992,-1.11574 1.94714,-1.11574 z m -160.342571,0.003 c 1.145091,0.006 3.031683,1.42769 3.274561,4.36608 v 1.14955 h -6.549122 v -1.14955 c 0.242983,-2.93949 2.129786,-4.36121 3.274561,-4.36608 z m 68.486541,0 c 1.1451,0.006 3.03167,1.42766 3.27455,4.36608 v 1.14955 h -6.54912 v -1.14955 c 0.24298,-2.93949 2.1298,-4.36121 3.27457,-4.36608 z"
       id="ellipse1494"
       inkscape:connector-curvature="0" />
    <path
       style="opacity:1;fill:url(#linearGradient1548);fill-opacity:1;fill-rule:evenodd;stroke:#000000;stroke-width:0;stroke-linecap:round;stroke-linejoin:round;stroke-miterlimit:4;stroke-dasharray:none;stroke-dashoffset:0;stroke-opacity:1;paint-order:fill markers stroke"
       d="m 16.250835,85.741506 v 49.641234 11.33155 H 27.582369 45.658132 V 135.38274 H 27.582369 V 85.741506 Z m 137.054045,0 v 60.972784 h 11.33089 V 85.741506 Z m 17.80605,0 v 46.976834 c 0,9.30486 6.74517,17.78119 16.04511,17.78119 9.29993,0 16.05974,-8.47632 16.05974,-17.78119 V 85.741506 h -11.33089 v 46.976834 c 0,3.95284 -2.47073,6.42161 -4.72885,6.42161 -2.25817,0 -4.7142,-2.46877 -4.7142,-6.42161 V 85.741506 Z M 63.958307,101.25806 c -2.674242,-0.0192 -5.319712,0.66266 -7.645104,2.10334 -4.778284,2.92442 -7.92822,8.44573 -8.286495,14.45181 l -0.03504,0.003 v 1.1438 12.21075 1.14381 l 0.03504,0.003 c 0.358275,6.00609 3.508211,11.52738 8.286495,14.4518 4.878687,2.72804 10.810955,2.88136 15.461716,0 4.721024,-2.88936 7.850565,-8.31402 8.270567,-14.23631 H 68.662947 c -0.488452,3.14599 -2.634405,5.0549 -4.61856,5.05976 -2.115071,-0.005 -4.414381,-2.17295 -4.693794,-5.69732 v -3.46393 h 9.386947 4.05813 7.30082 v -9.47047 -1.1438 l -0.03504,-0.003 c -0.358301,-6.00614 -3.508237,-11.52743 -8.286508,-14.45185 -2.439318,-1.36402 -5.142357,-2.08418 -7.816612,-2.10335 z m 68.486533,0 c -2.67424,-0.0192 -5.31971,0.66266 -7.6451,2.10334 -4.77829,2.92442 -7.92821,8.44573 -8.28651,14.45181 l -0.035,0.003 v 1.1438 12.21075 1.14381 l 0.035,0.003 c 0.3583,6.00609 3.50822,11.52738 8.28651,14.4518 4.87869,2.72804 10.81094,2.88136 15.4617,0 4.72103,-2.88936 7.85059,-8.31402 8.27059,-14.23631 h -11.38256 c -0.48845,3.14599 -2.6344,5.0549 -4.61856,5.05976 -2.11506,-0.005 -4.41438,-2.17295 -4.69378,-5.69732 v -3.46393 h 9.38693 4.05815 7.30081 v -9.47047 -1.1438 l -0.035,-0.003 c -0.35831,-6.00609 -3.50824,-11.52738 -8.28652,-14.4518 -2.43932,-1.36403 -5.14235,-2.08419 -7.81661,-2.10336 z m 95.57309,0.80844 c -2.44115,-0.0603 -4.83459,1.10024 -6.99608,3.18594 v -2.51394 h -11.33089 v 60.97277 h 11.33089 v -17.69385 c 3.3703,3.2528 7.30423,4.25415 11.10329,1.89422 5.08081,-3.10959 8.32159,-9.15547 8.32159,-15.59817 v -0.77657 -11.80141 -0.77656 c 0,-6.44269 -3.24078,-12.48795 -8.32159,-15.59753 -1.36247,-0.84635 -2.74203,-1.2612 -4.10721,-1.2949 z m -145.105289,0.13261 8.723237,44.51518 h 14.593352 l 8.72324,-44.51518 h -11.5464 l -4.473196,22.82694 -4.473836,-22.82694 z m 141.474309,10.33821 c 2.25811,0 4.72884,2.46875 4.72884,6.42161 v 0.50688 12.34079 0.50687 c 0,3.95285 -2.47073,6.42161 -4.72884,6.42161 -1.19965,0 -2.45167,-0.70254 -3.3651,-1.94841 v -22.30093 c 0.91343,-1.24587 2.16545,-1.94842 3.3651,-1.94842 z m -160.343204,6.5e-4 c 2.115058,0.005 4.414405,2.17295 4.693794,5.69732 v 2.65868 h -9.386947 v -2.65868 c 0.279376,-3.52403 2.578254,-5.69213 4.693153,-5.69732 z m 68.486534,0 c 2.11506,0.005 4.41438,2.17293 4.69378,5.69732 v 2.65868 h -9.38693 v -2.65868 c 0.27937,-3.52403 2.57826,-5.69213 4.69315,-5.69732 z"
       id="rect895"
       inkscape:connector-curvature="0" />
  </g>
</svg>
