<?xml version="1.0" encoding="UTF-8" standalone="no"?>
<svg
   xmlns:dc="http://purl.org/dc/elements/1.1/"
   xmlns:cc="http://creativecommons.org/ns#"
   xmlns:rdf="http://www.w3.org/1999/02/22-rdf-syntax-ns#"
   xmlns:svg="http://www.w3.org/2000/svg"
   xmlns="http://www.w3.org/2000/svg"
   xmlns:xlink="http://www.w3.org/1999/xlink"
   xmlns:sodipodi="http://sodipodi.sourceforge.net/DTD/sodipodi-0.dtd"
   xmlns:inkscape="http://www.inkscape.org/namespaces/inkscape"
   height="40"
   width="40"
   preserveAspectRatio="none"
   version="1.1"
   id="svg2"
   sodipodi:docname="medicine.svg"
   inkscape:version="0.92.4 (5da689c313, 2019-01-14)">
  <metadata
     id="metadata8">
    <rdf:RDF>
      <cc:Work
         rdf:about="">
        <dc:format>image/svg+xml</dc:format>
        <dc:type
           rdf:resource="http://purl.org/dc/dcmitype/StillImage" />
        <dc:title></dc:title>
      </cc:Work>
    </rdf:RDF>
  </metadata>
  <defs
     id="defs6">
    <linearGradient
       id="linearGradient1396"
       spreadMethod="pad"
       gradientTransform="matrix(-520.40038,366.94835,-366.94835,-520.40038,642.44577,334.01009)"
       gradientUnits="userSpaceOnUse"
       y2="0"
       x2="1"
       y1="0"
       x1="0">
      <stop
         id="stop1392"
         offset="0"
         style="stop-opacity:1;stop-color:#b228ae" />
      <stop
         id="stop1394"
         offset="1"
         style="stop-opacity:1;stop-color:#380b46" />
    </linearGradient>
    <linearGradient
       inkscape:collect="always"
       xlink:href="#linearGradient1396"
       id="linearGradient881"
       x1="100.07711"
       y1="643.10876"
       x2="285.99133"
       y2="829.48468"
       gradientUnits="userSpaceOnUse" />
  </defs>
  <sodipodi:namedview
     pagecolor="#ffffff"
     bordercolor="#666666"
     borderopacity="1"
     objecttolerance="10"
     gridtolerance="10"
     guidetolerance="10"
     inkscape:pageopacity="0"
     inkscape:pageshadow="2"
     inkscape:window-width="1920"
     inkscape:window-height="1017"
     id="namedview4"
     showgrid="false"
     inkscape:zoom="1.5580939"
     inkscape:cx="-68.911398"
     inkscape:cy="106.74506"
     inkscape:window-x="-8"
     inkscape:window-y="-8"
     inkscape:window-maximized="1"
     inkscape:current-layer="svg2" />
  <g
     transform="matrix(0.28408506,0,0,-0.28408506,-5.3829671,61.994948)"
     id="g1380"
     style="fill:#6555c4;fill-opacity:1;stroke:none">
    <g
       id="g1382"
       style="fill:#6555c4;fill-opacity:1;stroke:none">
      <g
         id="g1388"
         style="fill:#6555c4;fill-opacity:1;stroke:none">
        <g
           id="g1390"
           style="fill:#6555c4;fill-opacity:1;stroke:none">
          <path
             style="fill:url(#linearGradient881);fill-opacity:1;stroke:none;stroke-width:1.33333325"
             d="m 208.31055,644.89648 c -1.10534,0 -2,0.896 -2,2 v 5.98633 h -5.99414 c -1.10534,0 -2.00196,0.896 -2.00196,2 v 8.85742 c 0,1.104 0.89662,2 2.00196,2 h 5.99414 v 5.9961 c 0,1.104 0.89466,2 2,2 h 8.85742 c 1.10533,0 2.00195,-0.896 2.00195,-2 v -5.9961 h 5.98633 c 1.104,0 2,-0.896 2,-2 v -8.85742 c 0,-1.104 -0.896,-2 -2,-2 h -5.98633 v -5.98633 c 0,-1.104 -0.89662,-2 -2.00195,-2 z m 2,4 h 4.85742 v 5.98633 c 0,1.104 0.89467,2 2,2 h 5.98828 v 4.85742 h -5.98828 c -1.10533,0 -2,0.896 -2,2 v 5.9961 h -4.85742 v -5.9961 c 0,-1.104 -0.896,-2 -2,-2 h -5.99414 v -4.85742 h 5.99414 c 1.104,0 2,-0.896 2,-2 z m -74.25391,5.4043 c -5.38267,0 -10.9402,1.27633 -12.76953,1.73633 -0.0533,0.0133 -0.10558,0.0282 -0.15625,0.0469 -3.532,1.2 -21.01844,7.64177 -18.39844,16.50977 2.084,7.05733 11.76337,11.44696 15.08203,12.76563 l 6.86133,35.85742 c 0.208,1.084 1.25451,1.78655 2.33984,1.58789 1.08667,-0.20934 1.79785,-1.25513 1.58985,-2.3418 l -7.07422,-36.95703 c -0.13333,-0.70267 -0.63455,-1.27963 -1.31055,-1.51563 -3.26533,-1.12933 -12.08434,-5.22201 -13.65234,-10.52734 -1.12933,-3.82267 8.71806,-9.14641 15.77539,-11.56641 7.23733,-1.80533 18.39339,-2.69066 19.52539,1.13868 1.56667,5.30666 -3.61028,13.53319 -5.73828,16.25586 -0.44133,0.564 -0.55058,1.32304 -0.28125,1.98437 l 17.16406,42.31445 c 0.316,0.77734 1.06418,1.25 1.85352,1.25 0.25066,0 0.50528,-0.0471 0.75195,-0.14843 1.02267,-0.41334 1.51623,-1.57952 1.10156,-2.60352 l -16.74218,-41.27734 c 2.06933,-2.90934 7.81056,-11.85087 5.72656,-18.90821 -1.29467,-4.384 -6.38977,-5.60156 -11.64844,-5.60156 z m 35.68945,10.64258 c -1.10533,0 -2,0.896 -2,2 v 10.51953 h -10.53515 c -1.10534,0 -2,0.89795 -2,2.00195 v 13.88477 c 0,1.10533 0.89466,2.00195 2,2.00195 h 10.53515 v 10.53516 c 0,1.10533 0.89467,2 2,2 h 13.88672 c 1.104,0 2,-0.89467 2,-2 v -10.53516 h 10.52344 c 1.104,0 1.99805,-0.89662 1.99805,-2.00195 v -13.88477 c 0,-1.104 -0.89405,-2.00195 -1.99805,-2.00195 h -10.52344 v -10.51953 c 0,-1.104 -0.896,-2 -2,-2 z m 2.00196,4 h 9.88476 v 10.52148 c 0,1.104 0.89467,2 2,2 h 10.52149 v 9.88672 h -10.52149 c -1.10533,0 -2,0.89538 -2,1.99805 v 10.53906 h -9.88476 v -10.53906 c 0,-1.10267 -0.89662,-1.99805 -2.00196,-1.99805 h -10.53515 v -9.88672 h 10.53515 c 1.10534,0 2.00196,-0.896 2.00196,-2 z m 67.43164,11.41797 c -23.53334,0 -42.68164,19.14635 -42.68164,42.67969 0,23.53466 19.1483,42.68359 42.68164,42.68359 23.53466,0 42.68164,-19.14893 42.68164,-42.68359 0,-23.53334 -19.14698,-42.67969 -42.68164,-42.67969 z m 0,4 c 21.32933,0 38.68164,17.35302 38.68164,38.67969 0,21.32933 -17.35231,38.68164 -38.68164,38.68164 -21.328,0 -38.67969,-17.35231 -38.67969,-38.68164 0,-21.32667 17.35169,-38.67969 38.67969,-38.67969 z m -8.82031,11.92578 c -1.104,0 -1.99805,0.896 -1.99805,2 v 13.91992 h -13.9375 c -1.104,0 -2,0.896 -2,2 v 17.6543 c 0,1.10533 0.896,2.00195 2,2.00195 h 13.9375 v 13.9336 c 0,1.10399 0.89405,1.99999 1.99805,2 h 17.65429 c 1.10534,0 2,-0.89601 2,-2 v -13.9336 h 13.92188 c 1.104,0 2,-0.89662 2,-2.00195 v -17.6543 c 0,-1.104 -0.896,-2 -2,-2 h -13.92188 v -13.91992 c 0,-1.104 -0.89466,-2 -2,-2 z m 2.00195,4 h 13.65429 v 13.91992 c 0,1.10267 0.89405,2 1.99805,2 h 13.92188 v 13.65625 h -13.92188 c -1.104,0 -1.99805,0.89405 -1.99805,1.99805 v 13.93555 h -13.65429 v -13.93555 c 0,-1.104 -0.89662,-1.99805 -2.00195,-1.99805 h -13.93555 v -13.65625 h 13.93555 c 1.10533,0 2.00195,-0.89733 2.00195,-2 z M 103.14258,727 c -0.61334,0 -1.19751,0.28358 -1.57617,0.76758 -0.38,0.48666 -0.51324,1.11813 -0.36524,1.7168 l 8.9043,35.74804 c 4.948,19.87333 20.20493,35.87381 39.82226,41.75781 3.98267,1.196 7.3336,3.82988 9.4336,7.42188 3.63866,6.22267 10.38051,10.08984 17.58984,10.08984 h 26.11133 c 7.21067,0 13.95046,-3.86779 17.5918,-10.09179 2.09866,-3.59067 5.44897,-6.22393 9.43164,-7.41993 19.61466,-5.884 34.87622,-21.88448 39.82422,-41.75781 0.26666,-1.07066 -0.38504,-2.15716 -1.45704,-2.42383 -1.07599,-0.27466 -2.15716,0.38432 -2.42382,1.45899 -4.608,18.508 -18.82247,33.4132 -37.0918,38.89453 -4.95467,1.48533 -9.12433,4.76318 -11.73633,9.22851 -2.92666,5.00267 -8.344,8.11133 -14.13867,8.11133 h -26.11133 c -5.79466,0 -11.21334,-3.10804 -14.13867,-8.10937 -2.612,-4.46667 -6.78033,-7.74514 -11.73633,-9.23047 -18.27066,-5.48133 -32.48184,-20.38653 -37.08984,-38.89453 L 105.70117,731 h 84.30664 c 1.10534,0 2,-0.89467 2,-2 0,-1.104 -0.89466,-2 -2,-2 z m 109.59765,76.12695 c -0.0667,0 -0.13059,0.003 -0.19726,0.01 -22.29733,2.18533 -43.68706,0.0246 -43.90039,0.002 -1.10134,-0.104 -2.0826,0.68321 -2.19727,1.78321 -0.11333,1.09733 0.68649,2.08064 1.78516,2.19531 0.144,0.0147 9.82332,0.99414 22.97265,0.99414 6.62,0 14.12123,-0.24686 21.72657,-0.99219 1.1,-0.108 1.90487,-1.0875 1.79687,-2.1875 -0.10133,-1.03067 -0.98233,-1.80469 -1.98633,-1.80469 z"
             transform="matrix(0.75000002,0,0,-0.75000002,-54.968529,698.90189)"
             id="path1398"
             inkscape:connector-curvature="0" />
        </g>
      </g>
    </g>
  </g>
</svg>
