<?xml version="1.0" encoding="UTF-8" standalone="no"?>
<svg
   xmlns:dc="http://purl.org/dc/elements/1.1/"
   xmlns:cc="http://creativecommons.org/ns#"
   xmlns:rdf="http://www.w3.org/1999/02/22-rdf-syntax-ns#"
   xmlns:svg="http://www.w3.org/2000/svg"
   xmlns="http://www.w3.org/2000/svg"
   xmlns:xlink="http://www.w3.org/1999/xlink"
   xmlns:sodipodi="http://sodipodi.sourceforge.net/DTD/sodipodi-0.dtd"
   xmlns:inkscape="http://www.inkscape.org/namespaces/inkscape"
   height="40"
   width="40"
   preserveAspectRatio="none"
   version="1.1"
   id="svg2"
   sodipodi:docname="med1 — копия (2).svg"
   inkscape:version="0.92.4 (5da689c313, 2019-01-14)">
  <metadata
     id="metadata8">
    <rdf:RDF>
      <cc:Work
         rdf:about="">
        <dc:format>image/svg+xml</dc:format>
        <dc:type
           rdf:resource="http://purl.org/dc/dcmitype/StillImage" />
        <dc:title />
      </cc:Work>
    </rdf:RDF>
  </metadata>
  <defs
     id="defs6">
    <linearGradient
       inkscape:collect="always"
       id="linearGradient852">
      <stop
         style="stop-color:#b228ae;stop-opacity:1"
         offset="0"
         id="stop848" />
      <stop
         style="stop-color:#380b46;stop-opacity:1"
         offset="1"
         id="stop850" />
    </linearGradient>
    <linearGradient
       id="linearGradient1396"
       spreadMethod="pad"
       gradientTransform="matrix(-520.40038,366.94835,-366.94835,-520.40038,642.44577,334.01009)"
       gradientUnits="userSpaceOnUse"
       y2="0"
       x2="1"
       y1="0"
       x1="0">
      <stop
         id="stop1392"
         offset="0"
         style="stop-opacity:1;stop-color:#b228ae" />
      <stop
         id="stop1394"
         offset="1"
         style="stop-opacity:1;stop-color:#380b46" />
    </linearGradient>
    <linearGradient
       inkscape:collect="always"
       xlink:href="#linearGradient1396"
       id="linearGradient881"
       x1="130.57442"
       y1="677.52716"
       x2="231.96754"
       y2="783.30304"
       gradientUnits="userSpaceOnUse" />
    <linearGradient
       id="linearGradient1596"
       spreadMethod="pad"
       gradientTransform="matrix(-520.40188,366.94942,-366.94942,-520.40188,824.79631,592.61477)"
       gradientUnits="userSpaceOnUse"
       y2="0"
       x2="1"
       y1="0"
       x1="0">
      <stop
         id="stop1592"
         offset="0"
         style="stop-opacity:1;stop-color:#6555c4" />
      <stop
         id="stop1594"
         offset="1"
         style="stop-opacity:1;stop-color:#00c9cc" />
    </linearGradient>
    <linearGradient
       inkscape:collect="always"
       xlink:href="#linearGradient1396"
       id="linearGradient846"
       x1="346.03247"
       y1="139.27589"
       x2="479.1106"
       y2="139.27589"
       gradientUnits="userSpaceOnUse" />
    <linearGradient
       inkscape:collect="always"
       xlink:href="#linearGradient852"
       id="linearGradient854"
       x1="524.8681"
       y1="650.84192"
       x2="713.44183"
       y2="838.37585"
       gradientUnits="userSpaceOnUse" />
  </defs>
  <sodipodi:namedview
     pagecolor="#ffffff"
     bordercolor="#666666"
     borderopacity="1"
     objecttolerance="10"
     gridtolerance="10"
     guidetolerance="10"
     inkscape:pageopacity="0"
     inkscape:pageshadow="2"
     inkscape:window-width="1920"
     inkscape:window-height="1017"
     id="namedview4"
     showgrid="false"
     inkscape:zoom="7.6174907"
     inkscape:cx="19.45066"
     inkscape:cy="41.141163"
     inkscape:window-x="-8"
     inkscape:window-y="-8"
     inkscape:window-maximized="1"
     inkscape:current-layer="svg2" />
  <g
     transform="matrix(0.27785233,0,0,-0.27785233,-94.010152,58.782043)"
     id="g1580"
     style="fill:url(#linearGradient846);fill-opacity:1;stroke:none;stroke-opacity:1">
    <g
       id="g1582"
       style="fill:url(#linearGradient846);fill-opacity:1;stroke:none;stroke-opacity:1">
      <g
         id="g1588"
         style="fill:url(#linearGradient846);fill-opacity:1;stroke:none;stroke-opacity:1">
        <g
           id="g1590"
           style="fill:url(#linearGradient846);fill-opacity:1;stroke:none;stroke-opacity:1">
          <path
             style="fill:url(#linearGradient854);fill-opacity:1;stroke:none;stroke-width:1.33333325;stroke-opacity:1"
             d="m 536.66797,653.7207 c -1.10533,0 -2,0.896 -2,2 v 180.89453 c 0,1.104 0.89467,2 2,2 h 140.7207 c 1.104,0 2,-0.896 2,-2 v -34.25195 c 0,-1.10533 -0.896,-2 -2,-2 -1.10533,0 -2.00195,0.89467 -2.00195,2 v 32.25195 H 538.66992 V 657.72266 h 136.7168 v 59.39648 c 0,1.104 0.89662,2 2.00195,2 1.104,0 2,-0.896 2,-2 V 655.7207 c 0,-1.104 -0.896,-2 -2,-2 z m 17.58984,16.01563 c -1.104,0 -1.99804,0.896 -1.99804,2 v 71.34961 c 0,1.104 0.89404,2 1.99804,2 h 71.35157 c 1.10533,0 2,-0.896 2,-2 v -71.34961 c 0,-1.104 -0.89467,-2 -2,-2 z m 2.00196,4 h 67.34961 v 67.34961 h -67.34961 z m 19.71875,8.86719 c -1.10534,0 -2,0.896 -2,2 v 22.98046 c 0,0.0248 0.007,0.0477 0.008,0.0723 0.003,0.0802 0.011,0.15902 0.0234,0.23828 0.008,0.0508 0.0156,0.10093 0.0273,0.15039 0.0169,0.0718 0.0396,0.14114 0.0644,0.21094 0.02,0.0556 0.0398,0.11083 0.0645,0.16406 0.0284,0.0618 0.0627,0.12059 0.0977,0.17969 0.0309,0.0521 0.0623,0.10346 0.0977,0.15234 0.0407,0.0563 0.0857,0.10954 0.13281,0.16211 0.0414,0.0463 0.0834,0.0906 0.12891,0.13282 0.0222,0.0206 0.0391,0.0447 0.0625,0.0644 l 17.41406,14.73047 -8.79102,7.62109 c -0.836,0.72533 -0.92579,1.98955 -0.20312,2.82422 0.396,0.45733 0.95172,0.68945 1.51172,0.68945 0.46533,0 0.93188,-0.16161 1.31054,-0.48828 l 9.26368,-8.03125 9.51367,8.04688 c 0.376,0.31866 0.83635,0.47265 1.29101,0.47265 0.56934,0 1.1333,-0.24036 1.5293,-0.70703 0.712,-0.844 0.60634,-2.10698 -0.23633,-2.82031 l -9.03906,-7.64453 8.88477,-7.70313 c 0.83466,-0.72533 0.92517,-1.9876 0.20117,-2.82226 -0.39467,-0.45734 -0.94977,-0.69141 -1.50977,-0.69141 -0.46533,0.001 -0.93188,0.16224 -1.31055,0.49023 l -9.35742,8.11133 -13.71875,-11.60351 h 9.86719 c 6.51067,0 11.80469,-5.29731 11.80469,-11.80664 v -3.36914 c 0,-6.51067 -5.29402,-11.80664 -11.80469,-11.80664 z m 2,4.00195 h 13.32812 c 4.304,0 7.80664,3.49935 7.80664,7.80469 v 3.36914 c 0,4.304 -3.50264,7.80664 -7.80664,7.80664 h -13.32812 z m 99.41015,38.41797 c -19.144,0 -34.71875,15.57341 -34.71875,34.71875 0,19.144 15.57475,34.71679 34.71875,34.71679 19.14267,0 34.7168,-15.57279 34.7168,-34.71679 0,-19.14534 -15.57413,-34.71875 -34.7168,-34.71875 z m 0,4 c 16.93733,0 30.71875,13.78008 30.71875,30.71875 0,16.93733 -13.78142,30.71679 -30.71875,30.71679 -16.93866,0 -30.71875,-13.77946 -30.71875,-30.71679 0,-16.93867 13.78009,-30.71875 30.71875,-30.71875 z m -7.09375,8.80859 c -1.104,0 -2,0.896 -2,2 v 10.80469 h -10.8164 c -1.104,0 -2,0.896 -2,2 v 14.19726 c 0,1.104 0.896,2 2,2 h 10.8164 v 10.81836 c 0,1.104 0.896,1.99805 2,1.99805 h 14.19727 c 1.10533,0 2.00195,-0.89405 2.00195,-1.99805 v -10.81836 h 10.80274 c 1.10533,0 2.00195,-0.896 2.00195,-2 v -14.19726 c 0,-1.104 -0.89662,-2 -2.00195,-2 h -10.80274 v -10.80469 c 0,-1.104 -0.89662,-2 -2.00195,-2 z m 2,4 h 10.19922 v 10.80469 c 0,1.104 0.89405,2 1.99805,2 h 10.80664 v 10.19922 h -10.80664 c -1.104,0 -1.99805,0.89404 -1.99805,1.99804 v 10.81836 h -10.19922 v -10.81836 c 0,-1.104 -0.89466,-1.99804 -2,-1.99804 h -10.8164 v -10.19922 h 10.8164 c 1.10534,0 2,-0.896 2,-2 z m -118.03711,21.04883 c -1.104,0 -1.99804,0.89795 -1.99804,2.00195 0,1.104 0.89404,1.99805 1.99804,1.99805 h 71.35157 c 1.10533,0 2,-0.89405 2,-1.99805 0,-1.104 -0.89467,-2.00195 -2,-2.00195 z m 0,17.95312 c -1.104,0 -1.99804,0.89467 -1.99804,2 0,1.104 0.89404,2 1.99804,2 h 71.35157 c 1.10533,0 2,-0.896 2,-2 0,-1.10533 -0.89467,-2 -2,-2 z m 0,19.68946 c -1.104,0 -1.99804,0.896 -1.99804,2 0,1.104 0.89404,2 1.99804,2 h 71.35157 c 1.10533,0 2,-0.896 2,-2 0,-1.104 -0.89467,-2 -2,-2 z"
             transform="matrix(0.75000002,0,0,-0.75000002,-54.968529,698.90189)"
             id="path1598"
             inkscape:connector-curvature="0" />
        </g>
      </g>
    </g>
  </g>
</svg>
